<svg width="41" height="40" viewBox="0 0 41 40" fill="none" xmlns="http://www.w3.org/2000/svg">
<mask id="mask0_95_1627" style="mask-type:alpha" maskUnits="userSpaceOnUse" x="0" y="0" width="41" height="40">
<rect x="0.822266" width="39.2875" height="39.2875" fill="#D9D9D9"/>
</mask>
<g mask="url(#mask0_95_1627)">
<path d="M32.8249 33.6808L22.5119 23.4088C21.6935 24.0909 20.7522 24.6229 19.6882 25.0048C18.6241 25.3868 17.5328 25.5778 16.4142 25.5778C13.604 25.5778 11.2304 24.6092 9.29333 22.6721C7.35624 20.735 6.3877 18.3614 6.3877 15.5513C6.3877 12.7684 7.35624 10.4013 9.29333 8.45006C11.2304 6.49987 13.604 5.52478 16.4142 5.52478C19.1971 5.52478 21.557 6.49333 23.4941 8.43042C25.4312 10.3675 26.3998 12.7411 26.3998 15.5513C26.3998 16.7244 26.2088 17.843 25.8268 18.9071C25.4449 19.9711 24.9265 20.8987 24.2717 21.69L34.5437 31.962L32.8249 33.6808ZM16.4142 23.1223C18.515 23.1223 20.2955 22.3857 21.7557 20.9124C23.2148 19.4391 23.9443 17.6521 23.9443 15.5513C23.9443 13.4505 23.2148 11.6635 21.7557 10.1902C20.2955 8.71689 18.515 7.98025 16.4142 7.98025C14.2861 7.98025 12.4925 8.71689 11.0334 10.1902C9.57326 11.6635 8.84316 13.4505 8.84316 15.5513C8.84316 17.6521 9.57326 19.4391 11.0334 20.9124C12.4925 22.3857 14.2861 23.1223 16.4142 23.1223Z" fill="white"/>
</g>
</svg>
