<svg width="34" height="34" viewBox="0 0 34 34" fill="none" xmlns="http://www.w3.org/2000/svg">
<path d="M6.27146 27C4.77717 27 3.64514 26.6336 2.87536 25.9007C2.12067 25.1828 1.74333 24.1507 1.74333 22.8045V19.0352C1.74333 18.6763 1.65277 18.4146 1.47164 18.25C1.29052 18.0855 1.04902 18.0033 0.747141 18.0033H0V14.9968H0.747141C1.04902 14.9968 1.29052 14.9145 1.47164 14.75C1.65277 14.5705 1.74333 14.3088 1.74333 13.9648V10.1955C1.74333 8.84936 2.12067 7.81731 2.87536 7.09936C3.64514 6.36645 4.77717 6 6.27146 6H7.67518V8.98398H7.31293C6.76955 8.98398 6.35447 9.12607 6.06769 9.41026C5.796 9.69445 5.66016 10.0983 5.66016 10.6218V13.875C5.66016 14.578 5.56205 15.124 5.36583 15.5128C5.16961 15.9017 4.86019 16.1859 4.43756 16.3654C4.03003 16.5299 3.50175 16.6496 2.85272 16.7244V16.2757C3.50175 16.3355 4.03003 16.4551 4.43756 16.6346C4.86019 16.8141 5.16961 17.0984 5.36583 17.4872C5.56205 17.876 5.66016 18.422 5.66016 19.125V22.3783C5.66016 22.9018 5.796 23.3056 6.06769 23.5898C6.35447 23.874 6.76955 24.0161 7.31293 24.0161H7.67518V27H6.27146ZM10.9432 22.827C10.2791 22.827 9.71307 22.6101 9.24516 22.1763C8.79235 21.7276 8.56594 21.1592 8.56594 20.4712C8.56594 19.7682 8.79235 19.2073 9.24516 18.7885C9.71307 18.3547 10.2791 18.1378 10.9432 18.1378C11.6224 18.1378 12.1884 18.3547 12.6412 18.7885C13.1092 19.2073 13.3431 19.7682 13.3431 20.4712C13.3431 21.1592 13.1092 21.7276 12.6412 22.1763C12.1884 22.6101 11.6224 22.827 10.9432 22.827ZM16.9987 22.827C16.3345 22.827 15.7685 22.6101 15.3007 22.1763C14.8479 21.7276 14.6214 21.1592 14.6214 20.4712C14.6214 19.7682 14.8479 19.2073 15.3007 18.7885C15.7685 18.3547 16.3345 18.1378 16.9987 18.1378C17.6779 18.1378 18.244 18.3547 18.6968 18.7885C19.1646 19.2073 19.3986 19.7682 19.3986 20.4712C19.3986 21.1592 19.1646 21.7276 18.6968 22.1763C18.244 22.6101 17.6779 22.827 16.9987 22.827ZM23.0541 22.827C22.3901 22.827 21.8241 22.6101 21.3561 22.1763C20.9033 21.7276 20.6769 21.1592 20.6769 20.4712C20.6769 19.7682 20.9033 19.2073 21.3561 18.7885C21.8241 18.3547 22.3901 18.1378 23.0541 18.1378C23.7334 18.1378 24.2994 18.3547 24.7522 18.7885C25.2202 19.2073 25.4541 19.7682 25.4541 20.4712C25.4541 21.1592 25.2202 21.7276 24.7522 22.1763C24.2994 22.6101 23.7334 22.827 23.0541 22.827ZM27.7286 27H26.3476V24.0161H26.7097C27.2532 24.0161 27.6606 23.874 27.9324 23.5898C28.2041 23.3056 28.3398 22.9018 28.3398 22.3783V19.125C28.3398 18.422 28.438 17.876 28.6342 17.4872C28.8455 17.0984 29.1549 16.8141 29.5625 16.6346C29.9851 16.4551 30.5209 16.3355 31.1699 16.2757V16.7244C30.5209 16.6496 29.9851 16.5299 29.5625 16.3654C29.1549 16.1859 28.8455 15.9017 28.6342 15.5128C28.438 15.124 28.3398 14.578 28.3398 13.875V10.6218C28.3398 10.0983 28.2041 9.69445 27.9324 9.41026C27.6606 9.12607 27.2532 8.98398 26.7097 8.98398H26.3476V6H27.7286C29.2379 6 30.37 6.36645 31.1247 7.09936C31.8794 7.81731 32.2567 8.84936 32.2567 10.1955V13.9648C32.2567 14.3088 32.3473 14.5705 32.5284 14.75C32.7095 14.9145 32.9511 14.9968 33.2529 14.9968H34V18.0033H33.2529C32.9511 18.0033 32.7095 18.0855 32.5284 18.25C32.3473 18.4146 32.2567 18.6763 32.2567 19.0352V22.8045C32.2567 24.1507 31.8794 25.1828 31.1247 25.9007C30.37 26.6336 29.2379 27 27.7286 27Z" fill="#7D0CC1"/>
</svg>
