<svg width="40" height="40" viewBox="0 0 40 40" fill="none" xmlns="http://www.w3.org/2000/svg">
<mask id="mask0_228_902" style="mask-type:alpha" maskUnits="userSpaceOnUse" x="0" y="0" width="40" height="40">
<rect width="39.2875" height="39.2875" fill="#D9D9D9"/>
</mask>
<g mask="url(#mask0_228_902)">
<path d="M32.0029 33.6808L21.6899 23.4088C20.8714 24.0909 19.9302 24.6229 18.8661 25.0048C17.8021 25.3868 16.7108 25.5778 15.5922 25.5778C12.782 25.5778 10.4084 24.6092 8.47131 22.6721C6.53422 20.735 5.56567 18.3614 5.56567 15.5513C5.56567 12.7684 6.53422 10.4013 8.47131 8.45006C10.4084 6.49987 12.782 5.52478 15.5922 5.52478C18.375 5.52478 20.735 6.49333 22.6721 8.43042C24.6092 10.3675 25.5777 12.7411 25.5777 15.5513C25.5777 16.7244 25.3868 17.843 25.0048 18.9071C24.6228 19.9711 24.1045 20.8987 23.4497 21.69L33.7217 31.962L32.0029 33.6808ZM15.5922 23.1223C17.693 23.1223 19.4735 22.3857 20.9336 20.9124C22.3927 19.4391 23.1223 17.6521 23.1223 15.5513C23.1223 13.4505 22.3927 11.6635 20.9336 10.1902C19.4735 8.71689 17.693 7.98025 15.5922 7.98025C13.4641 7.98025 11.6705 8.71689 10.2114 10.1902C8.75124 11.6635 8.02114 13.4505 8.02114 15.5513C8.02114 17.6521 8.75124 19.4391 10.2114 20.9124C11.6705 22.3857 13.4641 23.1223 15.5922 23.1223Z" fill="white"/>
</g>
</svg>
