<svg width="30" height="30" viewBox="0 0 30 30" fill="none" xmlns="http://www.w3.org/2000/svg">
<path d="M24.7381 7.60918H27.5401C27.8695 7.57625 28.2022 7.61561 28.5141 7.72441C28.826 7.83321 29.1093 8.00872 29.3435 8.2382C29.5776 8.46768 29.7566 8.74537 29.8676 9.05112C29.9786 9.35687 30.0188 9.68301 29.9852 10.0059V26.5825C30.0236 26.9059 29.987 27.2336 29.878 27.5412C29.769 27.8487 29.5905 28.1281 29.3558 28.3585C29.1211 28.5889 28.8363 28.7643 28.5227 28.8716C28.209 28.9789 27.8747 29.0152 27.5448 28.978C20.9713 28.978 14.352 29.0275 7.78081 28.978C6.09986 28.978 5.33569 28.1795 5.28522 26.4317C5.23474 25.1834 5.28522 23.8855 5.28522 22.3874C4.1642 22.3874 3.19696 22.4369 2.28019 22.3874C1.97989 22.4104 1.67807 22.3693 1.3955 22.2671C1.11292 22.1649 0.856288 22.0039 0.643243 21.7951C0.430198 21.5864 0.265796 21.335 0.161342 21.058C0.0568886 20.7811 0.0148611 20.4853 0.0381498 20.1909C-0.0127166 14.5492 -0.0127166 8.90705 0.0381498 3.26454C0.0099391 2.95359 0.0534879 2.6404 0.165568 2.34819C0.277648 2.05598 0.455385 1.79225 0.685605 1.57653C0.915824 1.36082 1.19262 1.19866 1.49548 1.10207C1.79834 1.00549 2.11949 0.97695 2.43513 1.01858H22.3998C23.9786 1.01858 24.7475 1.91719 24.7475 3.46474L24.7381 7.60918ZM7.47443 12.3531C7.47443 16.6471 7.52491 20.7915 7.42396 24.9348C7.37348 26.533 8.03553 26.8816 9.51222 26.8816C14.2498 26.8322 18.9863 26.8816 23.7744 26.8322C28.512 26.7827 27.7478 27.381 27.7983 22.8373C27.8488 19.3924 27.7983 15.8969 27.7983 12.3519L7.47443 12.3531ZM22.4996 5.76248H2.17689V17.7954C2.17689 20.3923 2.32949 20.4912 5.28405 20.0966V10.2555C5.28405 8.5078 6.09869 7.70928 7.9334 7.70928C11.2953 7.65981 14.7076 7.70928 18.0695 7.70928H22.5008L22.4996 5.76248Z" fill="#7D0CC1"/>
</svg>
