<?xml version="1.0" standalone="yes"?>
<svg xmlns="http://www.w3.org/2000/svg" width="400" height="400">
<path style="fill:#f3f7ff; stroke:none;" d="M0 0L0 400L400 400L400 0L0 0z"/>
<path style="fill:#a2a5e3; stroke:none;" d="M257.667 126.333L258.333 126.667L257.667 126.333M143 127L142 129L143 127z"/>
<path style="fill:#636792; stroke:none;" d="M257 127L257 136L258 136L259 127L257 127z"/>
<path style="fill:#a2a5e3; stroke:none;" d="M140 128L80 189C86.4814 186.198 91.044 179.904 95.9961 175.015C106.47 164.674 116.97 154.335 127.285 143.834C131.148 139.902 140.124 133.82 140 128z"/>
<path style="fill:#8b8cf8; stroke:none;" d="M141 128C122.322 154.616 92.9915 177.006 70 200L70 201L116.039 246.09L141 272L142 272C143.026 257.479 137.176 235.631 142.603 222.093C145.167 215.7 155.734 211.053 161 206.989C177.512 194.248 194.6 178.846 213 169C210.068 164.982 200.89 166.253 196 166.039C179.579 165.32 158.834 163.276 143 168L142 140L141 128z"/>
<path style="fill:#4f5198; stroke:none;" d="M258 128C257.851 145.995 253.66 166.428 259 184L256 182L255 182C234.748 200.486 209.274 218.396 186 233L186 234L233 234L257 233L257 273L259 268L260 268L261 270L308.883 221.661L330 199L328 197L324 198C324.451 190.445 313.316 182.943 308.299 178.084C291.373 161.69 275.872 143.342 258 128z"/>
<path style="fill:#8b8cf8; stroke:none;" d="M259 128L260 129L259 128z"/>
<path style="fill:#a2a5e3; stroke:none;" d="M260 128L260 130L262 130L260 128z"/>
<path style="fill:#636792; stroke:none;" d="M259 129L260 130L259 129M260 130L261 131L260 130z"/>
<path style="fill:#8b8cf8; stroke:none;" d="M261 130L262 131L261 130z"/>
<path style="fill:#a2a5e3; stroke:none;" d="M142 131L143 168C159.142 164.146 177.493 165.61 194 166.015C199.504 166.15 208.912 165.371 213 169L216 165L144 165L144 131L142 131M262.667 131.333L263.333 131.667L262.667 131.333z"/>
<path style="fill:#636792; stroke:none;" d="M259 132L259 135L260 135L259 132M262.667 132.333L263.333 132.667L262.667 132.333z"/>
<path style="fill:#a2a5e3; stroke:none;" d="M264 133L264 134L266 136L267 136L264 133z"/>
<path style="fill:#8b8cf8; stroke:none;" d="M265 134L266 135L265 134z"/>
<path style="fill:#636792; stroke:none;" d="M259 136L259 180L260 180C261.778 169.492 263.115 145.806 259 136M264 136L265 137L264 136M267 136L272 141L272 140L267 136z"/>
<path style="fill:#a2a5e3; stroke:none;" d="M268 136L272 140L268 136z"/>
<path style="fill:#8b8cf8; stroke:none;" d="M269 138L270 139L269 138z"/>
<path style="fill:#a2a5e3; stroke:none;" d="M272 141L272 142L274 144L275 144L272 141z"/>
<path style="fill:#636792; stroke:none;" d="M272 142L274 144L272 142z"/>
<path style="fill:#8b8cf8; stroke:none;" d="M273 142L274 143L273 142z"/>
<path style="fill:#636792; stroke:none;" d="M264 143L265 144L264 143M271 143L273 145L271 143M275 144L280 149L280 148L275 144z"/>
<path style="fill:#a2a5e3; stroke:none;" d="M276.333 144.667L276.667 145.333L276.333 144.667z"/>
<path style="fill:#8b8cf8; stroke:none;" d="M277 146L278 147L277 146z"/>
<path style="fill:#a2a5e3; stroke:none;" d="M278 146L278 148L280 148L278 146M280 149L280 150L282 152L283 152L280 149z"/>
<path style="fill:#8b8cf8; stroke:none;" d="M281 150L282 151L281 150z"/>
<path style="fill:#a2a5e3; stroke:none;" d="M122 151L123 152L122 151z"/>
<path style="fill:#636792; stroke:none;" d="M272 151L273 152L272 151M279 151L281 153L279 151M283 152L288 157L288 156L283 152z"/>
<path style="fill:#a2a5e3; stroke:none;" d="M284 152L284 154L286 154L284 152z"/>
<path style="fill:#8b8cf8; stroke:none;" d="M285 154L286 155L285 154z"/>
<path style="fill:#a2a5e3; stroke:none;" d="M286.667 155.333L287.333 155.667L286.667 155.333M288 157L288 158L290 160L291 160L288 157z"/>
<path style="fill:#636792; stroke:none;" d="M288 158L290 160L288 158z"/>
<path style="fill:#8b8cf8; stroke:none;" d="M289 158L290 159L289 158z"/>
<path style="fill:#636792; stroke:none;" d="M280 159L281 160L280 159M287 159L289 161L287 159M291 160L296 165L296 164L291 160z"/>
<path style="fill:#a2a5e3; stroke:none;" d="M292 160L296 164L292 160z"/>
<path style="fill:#8b8cf8; stroke:none;" d="M293 162L294 163L293 162z"/>
<path style="fill:#a2a5e3; stroke:none;" d="M296 165L296 166L298 168L299 168L296 165z"/>
<path style="fill:#636792; stroke:none;" d="M296 166L297 167L296 166z"/>
<path style="fill:#8b8cf8; stroke:none;" d="M297 166L298 167L297 166z"/>
<path style="fill:#636792; stroke:none;" d="M288 167L289 168L288 167M295 167L297 169L295 167M299.333 168.667L299.667 169.333L299.333 168.667z"/>
<path style="fill:#a2a5e3; stroke:none;" d="M300 168L304 172L300 168M203 176L213 169L203 176z"/>
<path style="fill:#8b8cf8; stroke:none;" d="M300 169L301 170L300 169M301 170L302 171L301 170M302 171L303 172L302 171z"/>
<path style="fill:#636792; stroke:none;" d="M302.667 172.333L303.333 172.667L302.667 172.333z"/>
<path style="fill:#a2a5e3; stroke:none;" d="M304 173L304 174L306 176L307 176L304 173z"/>
<path style="fill:#636792; stroke:none;" d="M304 174L306 176L304 174z"/>
<path style="fill:#8b8cf8; stroke:none;" d="M305 174L306 175L305 174z"/>
<path style="fill:#636792; stroke:none;" d="M303 175L305 177L303 175z"/>
<path style="fill:#a2a5e3; stroke:none;" d="M202 176L200 179L202 176z"/>
<path style="fill:#636792; stroke:none;" d="M257 176L251 186L255 182L256 182L259 184L257 176M307 176L312 181L312 180L307 176z"/>
<path style="fill:#a2a5e3; stroke:none;" d="M308 176L312 180L308 176z"/>
<path style="fill:#8b8cf8; stroke:none;" d="M309 178L310 179L309 178z"/>
<path style="fill:#a2a5e3; stroke:none;" d="M193 184L200 180C196.546 179.201 194.629 181.059 193 184M256 179L255 181L256 179z"/>
<path style="fill:#8b8cf8; stroke:none;" d="M256 180L257 181L256 180z"/>
<path style="fill:#a2a5e3; stroke:none;" d="M254 181L255 182L254 181M312 181L312 182L314 184L315 184L312 181M253 182L254 183L253 182z"/>
<path style="fill:#8b8cf8; stroke:none;" d="M313 182L314 183L313 182z"/>
<path style="fill:#a2a5e3; stroke:none;" d="M252 183L253 184L252 183z"/>
<path style="fill:#636792; stroke:none;" d="M311 183L313 185L311 183z"/>
<path style="fill:#a2a5e3; stroke:none;" d="M191 184L176 196C180.323 194.566 191.132 189.066 191 184M250 184L248 185L248 186L250 184z"/>
<path style="fill:#636792; stroke:none;" d="M315 184L317 187L315 184z"/>
<path style="fill:#a2a5e3; stroke:none;" d="M316 184L320 188L316 184z"/>
<path style="fill:#8b8cf8; stroke:none;" d="M250 185L251 186L250 185M248 186L247 188L248 186z"/>
<path style="fill:#636792; stroke:none;" d="M249 186L250 187L249 186z"/>
<path style="fill:#8b8cf8; stroke:none;" d="M317 186L318 187L317 186z"/>
<path style="fill:#a2a5e3; stroke:none;" d="M246 187L245 189L246 187z"/>
<path style="fill:#636792; stroke:none;" d="M248 187L249 188L248 187z"/>
<path style="fill:#8b8cf8; stroke:none;" d="M318 187L319 188L318 187z"/>
<path style="fill:#636792; stroke:none;" d="M246 188L247 189L246 188M318.667 188.333L319.333 188.667L318.667 188.333z"/>
<path style="fill:#a2a5e3; stroke:none;" d="M243 189L241 192L243 189z"/>
<path style="fill:#8b8cf8; stroke:none;" d="M244 189L245 190L244 189z"/>
<path style="fill:#636792; stroke:none;" d="M245 189L246 190L245 189z"/>
<path style="fill:#a2a5e3; stroke:none;" d="M320 189L320 190L322 192L323 192L320 189M78 190L78 192L80 190L78 190z"/>
<path style="fill:#636792; stroke:none;" d="M243.667 190.333L244.333 190.667L243.667 190.333M320 190L322 192L320 190z"/>
<path style="fill:#8b8cf8; stroke:none;" d="M321 190L322 191L321 190z"/>
<path style="fill:#636792; stroke:none;" d="M242 191L243 192L242 191M319 191L320 192L319 191z"/>
<path style="fill:#a2a5e3; stroke:none;" d="M72 198L78 192L72 198z"/>
<path style="fill:#8b8cf8; stroke:none;" d="M323 192L326 195L323 192z"/>
<path style="fill:#a2a5e3; stroke:none;" d="M324 192L325 193L324 192M238 193L230 200L238 193z"/>
<path style="fill:#8b8cf8; stroke:none;" d="M239 193L240 194L239 193z"/>
<path style="fill:#636792; stroke:none;" d="M323 193L324 194L323 193z"/>
<path style="fill:#a2a5e3; stroke:none;" d="M325 193L326 194L325 193z"/>
<path style="fill:#636792; stroke:none;" d="M238 194L239 195L238 194M324 194L325 195L324 194z"/>
<path style="fill:#a2a5e3; stroke:none;" d="M326 194L326 196L328 196L326 194z"/>
<path style="fill:#636792; stroke:none;" d="M237 195L238 196L237 195M324 198L328 197L328 196L326 195L324 198z"/>
<path style="fill:#a2a5e3; stroke:none;" d="M168 202L176 196L168 202z"/>
<path style="fill:#636792; stroke:none;" d="M235 196L236 197L235 196M239.333 196.667L239.667 197.333L239.333 196.667M234 197L235 198L234 197z"/>
<path style="fill:#a2a5e3; stroke:none;" d="M328 197L328 198C332.105 203.077 316.69 214.31 313 218C295.464 235.536 273.272 252.739 259 273C279.993 258.212 297.83 235.17 316 217C319.791 213.209 335.757 201.724 328 197M70 198L70 200L72 198L70 198z"/>
<path style="fill:#636792; stroke:none;" d="M232.667 198.333L233.333 198.667L232.667 198.333M328 198L329 199L328 198z"/>
<path style="fill:#8b8cf8; stroke:none;" d="M329 198L330 199L329 198z"/>
<path style="fill:#636792; stroke:none;" d="M231 199L232 200L231 199M236.667 199.333L237.333 199.667L236.667 199.333M326.667 199.333L327.333 199.667L326.667 199.333z"/>
<path style="fill:#a2a5e3; stroke:none;" d="M69 200L70 201L69 200z"/>
<path style="fill:#636792; stroke:none;" d="M71 200L72 201L71 200z"/>
<path style="fill:#a2a5e3; stroke:none;" d="M79 200L80 201L79 200M163.667 200.333L164.333 200.667L163.667 200.333M228 200L222 206L228 200z"/>
<path style="fill:#8b8cf8; stroke:none;" d="M229 200L228 202L229 200z"/>
<path style="fill:#636792; stroke:none;" d="M230 200L231 201L230 200M330 200L331 201L330 200z"/>
<path style="fill:#a2a5e3; stroke:none;" d="M70 201L71 202L70 201z"/>
<path style="fill:#636792; stroke:none;" d="M229 201L230 202L229 201M329 201L330 202L329 201z"/>
<path style="fill:#a2a5e3; stroke:none;" d="M71 202L72 203L71 202M160 208L168 202L160 208z"/>
<path style="fill:#636792; stroke:none;" d="M227 202L228 203L227 202M324 202L325 203L324 202M328 202L329 203L328 202z"/>
<path style="fill:#a2a5e3; stroke:none;" d="M72 203L80 211L72 203z"/>
<path style="fill:#636792; stroke:none;" d="M226 203L227 204L226 203M326 203L326 205L328 203L326 203M224.667 204.333L225.333 204.667L224.667 204.333M223 205L224 206L223 205M325 205L326 206L325 205z"/>
<path style="fill:#a2a5e3; stroke:none;" d="M220 206L219 208L220 206z"/>
<path style="fill:#8b8cf8; stroke:none;" d="M221 206L222 207L221 206z"/>
<path style="fill:#636792; stroke:none;" d="M222 206L223 207L222 206M323 206L323 208L325 206L323 206z"/>
<path style="fill:#8b8cf8; stroke:none;" d="M220 207L221 208L220 207z"/>
<path style="fill:#636792; stroke:none;" d="M230.667 207.333L231.333 207.667L230.667 207.333z"/>
<path style="fill:#a2a5e3; stroke:none;" d="M87 208L88 209L87 208M159 208L143.028 220.325L142 234L142 265L143 265L143.724 224.04L159 208z"/>
<path style="fill:#8b8cf8; stroke:none;" d="M218 208L217 210L218 208z"/>
<path style="fill:#636792; stroke:none;" d="M219 208L220 209L219 208M322 208L323 209L322 208z"/>
<path style="fill:#a2a5e3; stroke:none;" d="M216 209L208 215L208 216L216 209z"/>
<path style="fill:#636792; stroke:none;" d="M218 209L219 210L218 209M321 209L322 210L321 209M216.667 210.333L217.333 210.667L216.667 210.333M320 210L321 211L320 210z"/>
<path style="fill:#a2a5e3; stroke:none;" d="M80 211L80 213L82 213L82 211L80 211z"/>
<path style="fill:#636792; stroke:none;" d="M215 211L216 212L215 211M318 211L318 213L320 211L318 211z"/>
<path style="fill:#8b8cf8; stroke:none;" d="M213 212L214 213L213 212z"/>
<path style="fill:#a2a5e3; stroke:none;" d="M82 213L93 224L82 213z"/>
<path style="fill:#636792; stroke:none;" d="M212 213L213 214L212 213M317 213L318 214L317 213M211 214L212 215L211 214M315 214L315 216L317 214L315 214z"/>
<path style="fill:#8b8cf8; stroke:none;" d="M209 215L210 216L209 215z"/>
<path style="fill:#636792; stroke:none;" d="M210 215L211 216L210 215M214.667 215.333L215.333 215.667L214.667 215.333M222.667 215.333L223.333 215.667L222.667 215.333z"/>
<path style="fill:#a2a5e3; stroke:none;" d="M95 216L96 217L95 216M198 222L198 223L208 217L198 222z"/>
<path style="fill:#636792; stroke:none;" d="M314 216L315 217L314 216z"/>
<path style="fill:#8b8cf8; stroke:none;" d="M206 217L207 218L206 217z"/>
<path style="fill:#636792; stroke:none;" d="M207 217L208 218L207 217M313 217L314 218L313 217M205 218L206 219L205 218M312 218L313 219L312 218M204 219L205 220L204 219M310 219L310 221L312 219L310 219z"/>
<path style="fill:#8b8cf8; stroke:none;" d="M202 220L201 222L202 220z"/>
<path style="fill:#636792; stroke:none;" d="M203 220L204 221L203 220M202 221L203 222L202 221M309 221L310 222L309 221M200.667 222.333L201.333 222.667L200.667 222.333M307 222L307 224L309 222L307 222z"/>
<path style="fill:#8b8cf8; stroke:none;" d="M198 223L199 224L198 223z"/>
<path style="fill:#a2a5e3; stroke:none;" d="M93 224L101 232L93 224M103 224L104 225L103 224M196 224L192 228L197 225L196 224z"/>
<path style="fill:#636792; stroke:none;" d="M197 224L196 226L198 226L197 224M306 224L307 225L306 224M305 225L306 226L305 225M194 226L193 228L195 228L194 226M198 226L199 227L198 226M304 226L305 227L304 226M302 227L302 229L304 227L302 227z"/>
<path style="fill:#a2a5e3; stroke:none;" d="M185 233L192 229L185 233z"/>
<path style="fill:#636792; stroke:none;" d="M195 228L196 229L195 228z"/>
<path style="fill:#8b8cf8; stroke:none;" d="M190 229L191 230L190 229z"/>
<path style="fill:#636792; stroke:none;" d="M191 229L192 230L191 229M301 229L302 230L301 229M189 230L190 231L189 230M299 230L299 232L301 230L299 230M188 231L189 232L188 231z"/>
<path style="fill:#a2a5e3; stroke:none;" d="M101 232L104 235L101 232M111 232L112 233L111 232z"/>
<path style="fill:#8b8cf8; stroke:none;" d="M186 232L187 233L186 232z"/>
<path style="fill:#636792; stroke:none;" d="M187 232L188 233L187 232M261 232L262 233L261 232M298 232L299 233L298 232z"/>
<path style="fill:#8b8cf8; stroke:none;" d="M184 233L185 234L184 233z"/>
<path style="fill:#636792; stroke:none;" d="M184 234L184 235L189 235L184 234M256 233C236.843 238.662 210.017 234 190 234L190 235C210.309 235 237.565 239.745 257 234L256 233M297 233L298 234L297 233z"/>
<path style="fill:#8b8cf8; stroke:none;" d="M189 234L190 235L189 234M256 234L257 235L256 234z"/>
<path style="fill:#636792; stroke:none;" d="M296 234L297 235L296 234z"/>
<path style="fill:#a2a5e3; stroke:none;" d="M104 235L109 240L104 235M256 235L257 236L256 235z"/>
<path style="fill:#636792; stroke:none;" d="M294 235L294 237L296 235L294 235M257.333 236.667L257.667 237.333L257.333 236.667M259 237L259 264L260 264L259 237M293 237L294 238L293 237M291 238L291 240L293 238L291 238z"/>
<path style="fill:#a2a5e3; stroke:none;" d="M109 240L112 243L109 240M114 240L115 241L114 240M119 240L120 241L119 240z"/>
<path style="fill:#636792; stroke:none;" d="M290 240L291 241L290 240M289 241L290 242L289 241M288 242L289 243L288 242z"/>
<path style="fill:#a2a5e3; stroke:none;" d="M112 243L125 256C122.43 250.488 117.512 245.57 112 243z"/>
<path style="fill:#636792; stroke:none;" d="M286 243L286 245L288 243L286 243M285 245L286 246L285 245M283 246L283 248L285 246L283 246M282 248L283 249L282 248M281 249L282 250L281 249M280 250L281 251L280 250M279 251L280 252L279 251M278 252L279 253L278 252M277 253L278 254L277 253M275 254L275 256L277 254L275 254M272 255L273 256L272 255z"/>
<path style="fill:#a2a5e3; stroke:none;" d="M125 256L133 264L125 256z"/>
<path style="fill:#636792; stroke:none;" d="M257 256L258 257L257 256M272 259L275 256L272 259M270.667 259.333L271.333 259.667L270.667 259.333z"/>
<path style="fill:#8b8cf8; stroke:none;" d="M270 260L271 261L270 260z"/>
<path style="fill:#636792; stroke:none;" d="M269 261L270 262L269 261M267.333 262.667L267.667 263.333L267.333 262.667z"/>
<path style="fill:#8b8cf8; stroke:none;" d="M268 262L269 263L268 262z"/>
<path style="fill:#a2a5e3; stroke:none;" d="M133 264L136 267L133 264z"/>
<path style="fill:#636792; stroke:none;" d="M266 264L267 265L266 264M265 265L266 266L265 265z"/>
<path style="fill:#a2a5e3; stroke:none;" d="M143 266L141 273C144.369 272.263 144.21 268.768 143 266z"/>
<path style="fill:#636792; stroke:none;" d="M259 266L260 267L259 266M264 266L265 267L264 266z"/>
<path style="fill:#a2a5e3; stroke:none;" d="M136 267L141 272L136 267z"/>
<path style="fill:#636792; stroke:none;" d="M262 267L262 269L264 267L262 267M257.333 268.667L257.667 269.333L257.333 268.667M259 268L259 272L260 272L259 268M261 269L262 270L261 269z"/>
<path style="fill:#8b8cf8; stroke:none;" d="M257 273L258 274L257 273z"/>
<path style="fill:#a2a5e3; stroke:none;" d="M258 273L259 274L258 273M257 274L258 275L257 274z"/>
</svg>
