<svg width="40" height="40" viewBox="0 0 40 40" fill="none" xmlns="http://www.w3.org/2000/svg">
<mask id="mask0_228_908" style="mask-type:alpha" maskUnits="userSpaceOnUse" x="0" y="0" width="40" height="40">
<rect width="39.2875" height="39.2875" fill="#D9D9D9"/>
</mask>
<g mask="url(#mask0_228_908)">
<path d="M18.9072 28.6062C16.5881 28.4152 14.6309 27.4674 13.0353 25.7627C11.4387 24.057 10.6404 22.0173 10.6404 19.6437C10.6404 17.1337 11.5135 15.0056 13.2596 13.2595C15.0057 11.5134 17.1338 10.6403 19.6438 10.6403C22.0175 10.6403 24.0571 11.4315 25.7629 13.0139C27.4675 14.5964 28.4153 16.5607 28.6063 18.9071L26.028 18.1295C25.6734 16.6562 24.9094 15.4492 23.7363 14.5085C22.5631 13.5667 21.199 13.0958 19.6438 13.0958C17.8432 13.0958 16.3017 13.7369 15.0194 15.0192C13.7371 16.3015 13.0959 17.843 13.0959 19.6437C13.0959 21.1988 13.5668 22.563 14.5086 23.7362C15.4493 24.9093 16.6563 25.6732 18.1296 26.0279L18.9072 28.6062ZM20.8716 35.1132C20.6806 35.1677 20.4831 35.195 20.279 35.195H19.6438C17.4885 35.195 15.463 34.7858 13.5674 33.9673C11.6707 33.1488 10.0266 32.0438 8.63515 30.6524C7.24371 29.261 6.13875 27.6169 5.32026 25.7202C4.50177 23.8246 4.09253 21.7991 4.09253 19.6437C4.09253 17.4884 4.50177 15.4623 5.32026 13.5656C6.13875 11.67 7.24371 10.0265 8.63515 8.63502C10.0266 7.24359 11.6707 6.13863 13.5674 5.32014C15.463 4.50165 17.4885 4.09241 19.6438 4.09241C21.7992 4.09241 23.8252 4.50165 25.7219 5.32014C27.6176 6.13863 29.2611 7.24359 30.6525 8.63502C32.0439 10.0265 33.1489 11.67 33.9674 13.5656C34.7859 15.4623 35.1951 17.4884 35.1951 19.6437V20.2363C35.1951 20.4415 35.1679 20.6532 35.1133 20.8714L32.7397 20.1348V19.6437C32.7397 15.9878 31.471 12.8912 28.9337 10.3539C26.3964 7.81653 23.2998 6.54788 19.6438 6.54788C15.9879 6.54788 12.8913 7.81653 10.354 10.3539C7.81666 12.8912 6.548 15.9878 6.548 19.6437C6.548 23.2996 7.81666 26.3962 10.354 28.9336C12.8913 31.4709 15.9879 32.7395 19.6438 32.7395H20.1349L20.8716 35.1132ZM32.9852 35.4406L25.537 27.9923L23.7772 33.3534L19.6438 19.6437L33.3535 23.7771L27.9924 25.5368L35.4407 32.9851L32.9852 35.4406Z" fill="white"/>
</g>
</svg>
