<svg width="40" height="40" viewBox="0 0 40 40" fill="none" xmlns="http://www.w3.org/2000/svg">
<mask id="mask0_228_905" style="mask-type:alpha" maskUnits="userSpaceOnUse" x="0" y="0" width="40" height="40">
<rect width="39.2875" height="39.2875" fill="#D9D9D9"/>
</mask>
<g mask="url(#mask0_228_905)">
<path d="M16.4108 3.51941H19.6029L19.8076 5.52471C20.0258 5.60656 20.2032 5.69495 20.3396 5.7899C20.476 5.88594 20.6261 5.98852 20.7898 6.09765L22.6723 5.32009L24.2683 8.0211L22.6723 9.24884V10.3538L24.2683 11.6225L22.6723 14.3235L20.7898 13.5459C20.6261 13.655 20.4624 13.7571 20.2987 13.852C20.135 13.9481 19.9713 14.037 19.8076 14.1188L19.6029 16.1241H16.4108L16.2062 14.1188C16.0698 14.037 15.9334 13.9688 15.797 13.9142C15.6605 13.8597 15.5378 13.7778 15.4286 13.6687L15.3059 13.7915V22.7539L14.9376 22.0991L13.3415 22.7948V14.2007L11.7864 11.6225L13.3415 10.3947V9.28976L11.7454 8.0211L13.3415 5.32009L15.224 6.09765C15.3877 5.98852 15.5514 5.88594 15.7151 5.7899C15.8788 5.69495 16.0425 5.60656 16.2062 5.52471L16.4108 3.51941ZM18.0069 12.5228C18.7708 12.5228 19.412 12.2636 19.9303 11.7452C20.4487 11.2269 20.7079 10.5857 20.7079 9.82178C20.7079 9.05785 20.4487 8.4167 19.9303 7.89833C19.412 7.37995 18.7708 7.12076 18.0069 7.12076C17.243 7.12076 16.6018 7.37995 16.0834 7.89833C15.5651 8.4167 15.3059 9.05785 15.3059 9.82178C15.3059 10.5857 15.5651 11.2269 16.0834 11.7452C16.6018 12.2636 17.243 12.5228 18.0069 12.5228ZM27.8697 34.1309L27.6651 32.1256C27.4468 32.0438 27.2695 31.9548 27.133 31.8588C26.9966 31.7638 26.8466 31.6618 26.6829 31.5527L24.8003 32.3302L23.2043 29.6292L24.8003 28.4015V27.2965L23.2043 26.0688L24.8003 23.3269L26.6829 24.1044C26.8466 23.9953 26.9966 23.8998 27.133 23.8179C27.2695 23.7361 27.4195 23.6543 27.5832 23.5724L27.6651 23.2859L18.8254 17.0654H20.4214L20.5851 15.9195L28.6063 21.5262H31.0618L31.2664 23.5315C31.4847 23.6133 31.662 23.7017 31.7984 23.7967C31.9349 23.8927 32.0849 23.9953 32.2486 24.1044L34.1311 23.3269L35.7272 26.0279L34.1311 27.2556V28.3606L35.7272 29.6292L34.1311 32.3302L32.2486 31.5527L31.7575 31.8801C31.5938 31.9892 31.4301 32.0711 31.2664 32.1256L31.0618 34.1309H27.8697ZM29.4657 30.5296C30.2297 30.5296 30.8708 30.2704 31.3892 29.752C31.9076 29.2336 32.1668 28.5925 32.1668 27.8285C32.1668 27.0646 31.9076 26.4235 31.3892 25.9051C30.8708 25.3867 30.2297 25.1275 29.4657 25.1275C28.7018 25.1275 28.0607 25.3867 27.5423 25.9051C27.0239 26.4235 26.7647 27.0646 26.7647 27.8285C26.7647 28.5925 27.0239 29.2336 27.5423 29.752C28.0607 30.2704 28.7018 30.5296 29.4657 30.5296ZM8.22594 34.1309L8.02132 32.1256C7.83033 32.0438 7.66009 31.9548 7.51058 31.8588C7.35998 31.7638 7.20283 31.6618 7.03913 31.5527L5.1566 32.3302L3.56055 29.6292L5.1566 28.4015V27.2965L3.56055 26.0279L5.1566 23.3269L7.03913 24.1044C7.20283 23.9953 7.36652 23.8927 7.53022 23.7967C7.69392 23.7017 7.85762 23.6133 8.02132 23.5315L8.22594 21.5262H11.418L11.6227 23.5315C11.8409 23.6133 12.0183 23.7017 12.1547 23.7967C12.2911 23.8927 12.4412 23.9953 12.6049 24.1044L14.4874 23.3269L16.0834 26.0279L14.4874 27.2556V27.6649C14.4874 27.8285 14.4737 27.9786 14.4465 28.115L14.692 28.6061L23.6545 23.4087L22.0584 26.1916L22.3449 26.3962L15.6742 30.2431L14.4874 32.3302L12.6049 31.5527C12.4412 31.6618 12.2775 31.7638 12.1138 31.8588C11.9501 31.9548 11.7864 32.0438 11.6227 32.1256L11.418 34.1309H8.22594ZM9.82199 30.5296C10.5859 30.5296 11.2271 30.2704 11.7454 29.752C12.2638 29.2336 12.523 28.5925 12.523 27.8285C12.523 27.0646 12.2638 26.4235 11.7454 25.9051C11.2271 25.3867 10.5859 25.1275 9.82199 25.1275C9.05807 25.1275 8.41692 25.3867 7.89854 25.9051C7.38016 26.4235 7.12098 27.0646 7.12098 27.8285C7.12098 28.5925 7.38016 29.2336 7.89854 29.752C8.41692 30.2704 9.05807 30.5296 9.82199 30.5296Z" fill="white"/>
</g>
</svg>
